Coordinates
version=1
nRows=9
nColumns=36
inDegrees=yes

Units are S.I. units (second, meters, Newtons, ...)
If the header above contains a line with 'inDegrees', this indicates whether rotational values are in degrees (yes) or radians (no).

endheader
time	pelvis_tilt	pelvis_list	pelvis_rotation	pelvis_tx	pelvis_ty	pelvis_tz	hip_flexion_r	hip_adduction_r	hip_rotation_r	knee_angle_r	knee_angle_r_beta	ankle_angle_r	subtalar_angle_r	mtp_angle_r	hip_flexion_l	hip_adduction_l	hip_rotation_l	knee_angle_l	knee_angle_l_beta	ankle_angle_l	subtalar_angle_l	mtp_angle_l	lumbar_extension	lumbar_bending	lumbar_rotation	arm_flex_r	arm_add_r	arm_rot_r	elbow_flex_r	pro_sup_r	arm_flex_l	arm_add_l	arm_rot_l	elbow_flex_l	pro_sup_l
      2.04583330	    -15.51581611	      2.88232806	     -1.47550893	      0.04764503	      1.13955987	     -0.27901696	     29.94795092	    -16.38647668	     21.20807362	      1.09227104	      0.01906373	    -38.96209543	     15.54916361	     -7.49999987	     30.90256204	      4.45505660	     -3.27211751	     12.46718459	      0.21759342	    -18.16839167	      0.02110895	     -7.49999987	     -7.02051497	      1.37941961	     -0.95604960	     -5.45155513	    -24.69465921	     28.47157948	     22.21397697	     58.31044195	    -25.36846185	    -23.44683547	    169.06590752	    144.54923316	     89.33472388
      2.05000000	    -14.89062069	      2.94926450	     -2.06202585	      0.05178339	      1.13542557	     -0.27682380	     29.12243063	    -15.85845468	     17.95030338	      3.11096932	      0.05429666	    -31.31499891	     13.17185545	     -7.49999987	     30.19407178	      4.85119721	     -3.20366279	     12.81635390	      0.22368757	    -15.53779793	      0.09509759	     -7.49999987	     -7.14929477	      1.01539116	      0.25027299	     -5.93444924	    -23.84184867	     28.76238665	     20.92370164	     57.67415337	    -22.52665833	    -25.02244291	    167.49103336	    145.11972348	     88.55629420
      2.05416670	    -14.54465694	      3.26623647	     -2.25689414	      0.05497004	      1.13032852	     -0.27465976	     28.96448841	    -15.90068939	     16.59270744	      5.16251661	      0.09010291	    -24.92616904	     11.64293016	     -7.49999987	     30.04128391	      5.59227822	     -3.53150780	     13.33950973	      0.23281837	    -13.64470081	     -0.40714147	     -7.49999987	     -7.46147968	      1.37192079	      0.17728377	     -5.83990967	    -23.55118126	     30.61896692	     20.25501387	     52.90027960	    -26.31714214	    -22.86784825	    179.02671359	    144.34754804	     91.77707587
      2.05833330	    -14.18783502	      3.59613170	     -2.63904521	      0.05951922	      1.11406465	     -0.27087634	     29.25794565	    -15.72994504	     16.19533251	      6.93630393	      0.12106134	    -19.73620663	      9.58629737	     -7.49999987	     29.92847898	      6.16480547	     -4.06127949	     14.03468720	      0.24495150	    -10.82409893	     -1.43645510	     -7.49999987	     -7.52670589	      1.15653242	      0.22281532	     -5.88170477	    -23.18314423	     31.98546778	     19.75301892	     53.44521774	    -26.28866369	    -22.45623012	    184.58867493	    144.26694517	     89.76116305
      2.06250000	    -14.41902778	      3.88672832	     -2.88282697	      0.06308345	      1.10022305	     -0.26883459	     30.24505727	    -15.51687154	     16.33407336	      8.58149644	      0.14977537	    -14.97393806	      7.98604297	     -7.49999987	     30.58222796	      6.69826831	     -4.19129058	     15.01442163	      0.26205109	     -7.96765048	     -3.04880164	     -7.49999987	     -7.13133252	      1.62465695	     -0.27374492	     -6.11627615	    -22.99678829	     31.96078949	     19.68152869	     53.74127487	    -31.07006673	    -23.56212934	    186.74239119	    140.81835409	     86.45763785
      2.06666670	    -14.35116722	      4.14755218	     -3.17456714	      0.06792096	      1.09290386	     -0.26605426	     30.85984241	    -15.35125843	     16.58046360	     10.03801548	      0.17519642	    -10.57970266	      6.57224652	     -7.49999987	     30.87663676	      7.12821778	     -4.17888725	     15.83137507	      0.27630962	     -5.13961628	     -4.08448521	     -7.49999987	     -6.52094275	      1.11403809	      0.24939816	     -6.87148446	    -22.40433507	     33.02521207	     19.50685675	     53.58574123	    -28.70498270	    -22.58349409	    190.76877600	    142.04924674	     85.60003630
      2.07083330	    -14.34603925	      4.50062961	     -3.69932885	      0.07148331	      1.08522691	     -0.26453934	     31.54452556	    -15.23161236	     16.34135363	     11.26059282	      0.19653442	     -7.37525515	      4.83406722	     -7.49999987	     31.15131292	      7.57139641	     -4.11426341	     16.25670425	      0.28373301	     -3.16534586	     -5.12086567	     -7.49999987	     -5.97346502	      0.74701311	      0.97052977	     -7.72265225	    -22.03441074	     32.76837997	     19.86568980	     52.43204760	    -26.80878950	    -22.32781612	    194.11731617	    142.09888870	     85.80727552
      2.07500000	    -14.30322343	      4.73782874	     -4.27580682	      0.07412327	      1.07869295	     -0.26223293	     32.16753285	    -15.06472003	     15.86771332	     12.48544917	      0.21791220	     -4.21384713	      2.92274395	     -7.49999987	     31.34830865	      7.78858788	     -4.35530526	     16.69734940	      0.29142372	     -0.95023937	     -6.10796024	     -7.49999987	     -5.51964665	      0.54519646	      1.00628869	     -7.56495989	    -21.15623894	     32.36115216	     18.62397881	     52.12690954	    -25.62705918	    -21.40887852	    195.91990520	    140.88031220	     86.10066331
      2.07916670	    -14.37286442	      5.00055935	     -4.71728230	      0.07629297	      1.07118681	     -0.25854519	     32.96577186	    -14.86134594	     15.29430873	     14.00617070	      0.24445379	     -1.29489461	      0.87723948	     -7.49999987	     31.95243898	      8.04252607	     -4.75420518	     17.48621853	      0.30519209	      0.91967371	     -6.78863191	     -7.49999987	     -5.04972183	      0.31236144	      1.47117014	     -7.85906842	    -20.11921803	     31.30630828	     17.59064354	     51.56367941	    -25.01614786	    -18.84429215	    201.80886948	    139.20459421	     86.59407635
